<svg width="25" height="27" viewBox="0 0 25 27" fill="none" xmlns="http://www.w3.org/2000/svg">
<path d="M19.9996 11.5V12H20.4996C21.0411 12 21.4094 12.1958 21.6467 12.4595C21.8919 12.7319 22.0246 13.1082 22.0246 13.5C22.0246 13.8918 21.8919 14.2681 21.6467 14.5405C21.4094 14.8042 21.0411 15 20.4996 15H4.49961C3.95813 15 3.58982 14.8042 3.35251 14.5405C3.10733 14.2681 2.97461 13.8918 2.97461 13.5C2.97461 13.1082 3.10733 12.7319 3.35251 12.4595C3.58982 12.1958 3.95813 12 4.49961 12H4.99961V11.5C4.99961 10.6634 5.4226 9.78563 6.1156 9.10732C6.71509 8.52055 7.48054 8.1189 8.26675 8.02242C8.88814 9.76321 10.5528 11 12.4996 11C14.4464 11 16.1111 9.76321 16.7325 8.02242C17.5187 8.1189 18.2841 8.52055 18.8836 9.10732C19.5766 9.78563 19.9996 10.6634 19.9996 11.5ZM12.4996 4.5C13.03 4.5 13.5387 4.71071 13.9138 5.08579C14.2889 5.46086 14.4996 5.96957 14.4996 6.5C14.4996 7.03043 14.2889 7.53914 13.9138 7.91421C13.5387 8.28929 13.03 8.5 12.4996 8.5C11.9692 8.5 11.4605 8.28929 11.0854 7.91421C10.7103 7.53914 10.4996 7.03043 10.4996 6.5C10.4996 5.96957 10.7103 5.46086 11.0854 5.08579C11.4605 4.71071 11.9692 4.5 12.4996 4.5ZM7.87676 24L6.16247 18H8.06596L8.9231 24H7.87676ZM11.9333 24L11.0761 18H13.9231L13.066 24H11.9333ZM16.0761 24L16.9333 18H18.8367L17.1225 24H16.0761Z" fill="#333333" stroke="#333333"/>
<circle cx="12.3333" cy="6.889" r="3.33333" fill="#FF0013" stroke="white"/>
<path d="M15.5 0.964238C15.7564 0.861682 15.8811 0.570696 15.7786 0.314305C15.676 0.0579129 15.385 -0.0667951 15.1286 0.0357617L15.5 0.964238ZM13.2557 3.65657C13.3251 3.03225 13.4221 2.57742 13.7014 2.1769C13.9795 1.7779 14.4844 1.37048 15.5 0.964238L15.1286 0.0357617C14.0146 0.481376 13.3128 0.985739 12.881 1.60501C12.4504 2.22277 12.3345 2.89269 12.2618 3.54614L13.2557 3.65657Z" fill="#333333"/>
<path d="M10.9383 8.36688C11.0487 8.44973 11.2054 8.42734 11.2883 8.31688C11.3711 8.20643 11.3487 8.04973 11.2383 7.96688L10.9383 8.36688ZM10.4856 5.43455C10.239 5.68108 9.96704 6.12249 9.95455 6.65968C9.94167 7.21355 10.2055 7.81729 10.9383 8.36688L11.2383 7.96688C10.6081 7.49425 10.446 7.03318 10.4544 6.67131C10.4632 6.29276 10.6597 5.9675 10.8391 5.7881L10.4856 5.43455Z" fill="white"/>
</svg>
