<svg width="25" height="28" viewBox="0 0 25 28" fill="none" xmlns="http://www.w3.org/2000/svg">
<path d="M12.4996 4.58691C13.1627 4.58691 13.7985 4.85031 14.2674 5.31915C14.7362 5.78799 14.9996 6.42387 14.9996 7.08691C14.9996 7.74996 14.7362 8.38584 14.2674 8.85468C13.7985 9.32352 13.1627 9.58691 12.4996 9.58691C11.8366 9.58691 11.2007 9.32352 10.7318 8.85468C10.263 8.38584 9.99961 7.74996 9.99961 7.08691C9.99961 6.42387 10.263 5.78799 10.7318 5.31915C11.2007 4.85031 11.8366 4.58691 12.4996 4.58691ZM16.3696 8.08691C18.4996 8.08691 20.4996 10.0869 20.4996 12.0869C23.1996 12.0869 23.1996 16.0869 20.4996 16.0869H4.49961C1.79961 16.0869 1.79961 12.0869 4.49961 12.0869C4.49961 10.0869 6.49961 8.08691 8.62961 8.08691C9.06961 9.81691 10.6396 11.0869 12.4996 11.0869C14.3596 11.0869 15.9296 9.81691 16.3696 8.08691ZM5.49961 18.0869H8.49961L9.49961 25.0869H7.49961L5.49961 18.0869ZM10.4996 18.0869H14.4996L13.4996 25.0869H11.4996L10.4996 18.0869ZM16.4996 18.0869H19.4996L17.4996 25.0869H15.4996L16.4996 18.0869Z" fill="#A8A5A0"/>
<circle cx="12.3333" cy="7.47591" r="3.33333" fill="#A8A5A0" stroke="white"/>
<path d="M15.5 1.55115C15.7564 1.4486 15.8811 1.15761 15.7786 0.901219C15.676 0.644827 15.385 0.520119 15.1286 0.622676L15.5 1.55115ZM13.2557 4.24349C13.3251 3.61916 13.4221 3.16433 13.7014 2.76381C13.9795 2.36482 14.4844 1.95739 15.5 1.55115L15.1286 0.622676C14.0146 1.06829 13.3128 1.57265 12.881 2.19193C12.4504 2.80968 12.3345 3.4796 12.2618 4.13306L13.2557 4.24349Z" fill="#A8A5A0"/>
<path d="M10.9383 8.9538C11.0487 9.03664 11.2054 9.01425 11.2883 8.9038C11.3711 8.79334 11.3487 8.63664 11.2383 8.5538L10.9383 8.9538ZM10.4856 6.02147C10.239 6.268 9.96704 6.7094 9.95455 7.2466C9.94167 7.80046 10.2055 8.40421 10.9383 8.9538L11.2383 8.5538C10.6081 8.08117 10.446 7.62009 10.4544 7.25822C10.4632 6.87968 10.6597 6.55441 10.8391 6.37502L10.4856 6.02147Z" fill="white"/>
</svg>
