<svg width="33" height="27" viewBox="0 0 33 27" fill="none" xmlns="http://www.w3.org/2000/svg">
<path d="M6 5.24316H21C22.3672 5.24316 23.5 6.40503 23.5 7.80727V19.3457C23.5 20.788 22.3672 21.9098 21 21.9098H15.5703L10.7266 25.6358C10.5312 25.796 10.2969 25.796 10.0625 25.716C9.86718 25.5956 9.75 25.3955 9.75 25.115V21.9098H6C4.59375 21.9098 3.5 20.788 3.5 19.3457V7.80727C3.5 6.40503 4.59375 5.24316 6 5.24316Z" fill="#333333"/>
<path d="M19.5869 16.0984V16.2437V16.5984V23.8634C19.5869 24.8486 20.3458 25.6454 21.3369 25.6454H30.5036C31.462 25.6454 32.2536 24.8555 32.2536 23.8634V16.5984V16.2437V16.0984V15.7437V14.4617C32.2536 13.5031 31.4687 12.6796 30.5036 12.6796H29.7536V12.3249C29.7536 11.6067 29.151 10.9702 28.4202 10.9702C27.6535 10.9702 27.0869 11.617 27.0869 12.3249V12.6796H24.7536V12.3249C24.7536 11.6067 24.151 10.9702 23.4202 10.9702C22.6535 10.9702 22.0869 11.617 22.0869 12.3249V12.6796H21.3369C20.3391 12.6796 19.5869 13.51 19.5869 14.4617V15.7437V16.0984Z" fill="#333333" stroke="white"/>
<path d="M7.40052 6.80427C7.40052 8.48839 6.03527 9.85365 4.35114 9.85365C2.66701 9.85365 1.30176 8.48839 1.30176 6.80427C1.30176 5.12014 2.66701 3.75488 4.35114 3.75488C6.03527 3.75488 7.40052 5.12014 7.40052 6.80427Z" fill="#FF0013" stroke="white"/>
<path d="M7.29707 1.35291C7.55346 1.25035 7.67817 0.959368 7.57561 0.702977C7.47305 0.446585 7.18207 0.321877 6.92568 0.424434L7.29707 1.35291ZM5.24206 3.81551C5.30617 3.23851 5.39533 2.82534 5.64825 2.46254C5.90012 2.10125 6.36035 1.7276 7.29707 1.35291L6.92568 0.424434C5.89052 0.838497 5.23335 1.30909 4.82792 1.89065C4.42355 2.47069 4.31552 3.09896 4.24818 3.70508L5.24206 3.81551Z" fill="#FF0013"/>
<path d="M3.04758 8.18735C3.15804 8.27019 3.31474 8.24781 3.39758 8.13735C3.48043 8.02689 3.45804 7.87019 3.34758 7.78735L3.04758 8.18735ZM2.62643 5.44432C2.39568 5.67507 2.14103 6.08808 2.12932 6.59136C2.11723 7.11131 2.36528 7.67562 3.04758 8.18735L3.34758 7.78735C2.76789 7.35258 2.62156 6.93094 2.62919 6.60299C2.6372 6.25836 2.81637 5.96149 2.97999 5.79787L2.62643 5.44432Z" fill="white"/>
</svg>
