<svg width="30" height="23" fill="none" xmlns="http://www.w3.org/2000/svg">
<path d="M3 1.24316H18C19.3672 1.24316 20.5 2.40503 20.5 3.80727V15.3457C20.5 16.788 19.3672 17.9098 18 17.9098H12.5703L7.72657 21.6358C7.53125 21.796 7.29687 21.796 7.0625 21.716C6.86718 21.5956 6.75 21.3955 6.75 21.115V17.9098H3C1.59375 17.9098 0.5 16.788 0.5 15.3457V3.80727C0.5 2.40503 1.59375 1.24316 3 1.24316Z" fill="#A8A5A0"/>
<path d="M16.5869 12.0984V12.2437V12.5984V19.8634C16.5869 20.8486 17.3458 21.6454 18.3369 21.6454H27.5036C28.462 21.6454 29.2536 20.8555 29.2536 19.8634V12.5984V12.2437V12.0984V11.7437V10.4617C29.2536 9.50308 28.4687 8.67962 27.5036 8.67962H26.7536V8.32492C26.7536 7.60672 26.151 6.97021 25.4202 6.97021C24.6535 6.97021 24.0869 7.61704 24.0869 8.32492V8.67962H21.7536V8.32492C21.7536 7.60672 21.151 6.97021 20.4202 6.97021C19.6535 6.97021 19.0869 7.61704 19.0869 8.32492V8.67962H18.3369C17.3391 8.67962 16.5869 9.50997 16.5869 10.4617V11.7437V12.0984Z" fill="#A8A5A0" stroke="white"/>
</svg>
