<svg width="25" height="25" viewBox="0 0 25 25" fill="none" xmlns="http://www.w3.org/2000/svg">
<path d="M21.1286 16.4989C21.0508 16.4052 20.9744 16.3114 20.8994 16.2209C19.8682 14.9736 19.2443 14.2208 19.2443 10.6897C19.2443 8.86156 18.8069 7.36156 17.9449 6.23656C17.3093 5.40547 16.4501 4.775 15.3176 4.30906C15.303 4.30096 15.29 4.29032 15.2791 4.27766C14.8718 2.91359 13.7571 2 12.4999 2C11.2427 2 10.1285 2.91359 9.72115 4.27625C9.71029 4.28847 9.69746 4.29877 9.68318 4.30672C7.04036 5.39469 5.75599 7.48203 5.75599 10.6883C5.75599 14.2208 5.13302 14.9736 4.10083 16.2195C4.02583 16.31 3.94943 16.4019 3.87161 16.4975C3.67061 16.7399 3.54326 17.0348 3.50464 17.3473C3.46601 17.6598 3.51772 17.9769 3.65365 18.2609C3.94286 18.8703 4.55927 19.2486 5.26286 19.2486H19.7421C20.4424 19.2486 21.0546 18.8708 21.3447 18.2642C21.4813 17.9801 21.5335 17.6628 21.4952 17.3499C21.4569 17.037 21.3297 16.7417 21.1286 16.4989ZM12.4999 23C13.1773 22.9995 13.8418 22.8156 14.4232 22.4679C15.0045 22.1202 15.4809 21.6217 15.8018 21.0252C15.8169 20.9966 15.8244 20.9646 15.8234 20.9322C15.8225 20.8999 15.8133 20.8684 15.7966 20.8407C15.7799 20.813 15.7563 20.7901 15.7281 20.7742C15.7 20.7583 15.6682 20.75 15.6358 20.75H9.3649C9.33252 20.7499 9.30066 20.7582 9.27243 20.774C9.2442 20.7899 9.22055 20.8128 9.2038 20.8405C9.18704 20.8682 9.17774 20.8997 9.17682 20.9321C9.17588 20.9645 9.18335 20.9965 9.19849 21.0252C9.51936 21.6216 9.99567 22.1201 10.5769 22.4678C11.1581 22.8155 11.8226 22.9994 12.4999 23Z" fill="#A8A5A0"/>
</svg>
