<svg width="25" height="25" viewBox="0 0 25 25" fill="none" xmlns="http://www.w3.org/2000/svg">
<path d="M21.1286 16.0858C21.0508 15.9921 20.9744 15.8983 20.8994 15.8079C19.8682 14.5605 19.2443 13.8077 19.2443 10.2766C19.2443 8.44848 18.8069 6.94848 17.9449 5.82348C17.3093 4.99238 16.4501 4.36191 15.3176 3.89598C15.303 3.88787 15.29 3.87724 15.2791 3.86457C14.8718 2.50051 13.7571 1.58691 12.4999 1.58691C11.2427 1.58691 10.1285 2.50051 9.72115 3.86316C9.71029 3.87538 9.69746 3.88568 9.68318 3.89363C7.04036 4.9816 5.75599 7.06895 5.75599 10.2752C5.75599 13.8077 5.13302 14.5605 4.10083 15.8064C4.02583 15.8969 3.94943 15.9888 3.87161 16.0844C3.67061 16.3268 3.54326 16.6217 3.50464 16.9342C3.46601 17.2468 3.51772 17.5638 3.65365 17.8479C3.94286 18.4572 4.55927 18.8355 5.26286 18.8355H19.7421C20.4424 18.8355 21.0546 18.4577 21.3447 17.8511C21.4813 17.567 21.5335 17.2497 21.4952 16.9368C21.4569 16.624 21.3297 16.3286 21.1286 16.0858ZM12.4999 22.5869C13.1773 22.5864 13.8418 22.4025 14.4232 22.0548C15.0045 21.7071 15.4809 21.2086 15.8018 20.6121C15.8169 20.5835 15.8244 20.5515 15.8234 20.5191C15.8225 20.4868 15.8133 20.4553 15.7966 20.4276C15.7799 20.3999 15.7563 20.377 15.7281 20.3611C15.7 20.3452 15.6682 20.3369 15.6358 20.3369H9.3649C9.33252 20.3368 9.30066 20.3451 9.27243 20.3609C9.2442 20.3768 9.22055 20.3997 9.2038 20.4274C9.18704 20.4551 9.17774 20.4867 9.17682 20.519C9.17588 20.5514 9.18335 20.5834 9.19849 20.6121C9.51936 21.2085 9.99567 21.707 10.5769 22.0547C11.1581 22.4024 11.8226 22.5863 12.4999 22.5869Z" fill="#333333"/>
<path d="M22.3337 7.80941C22.3337 9.65036 20.8413 11.1427 19.0003 11.1427C17.1594 11.1427 15.667 9.65036 15.667 7.80941C15.667 5.96846 17.1594 4.47607 19.0003 4.47607C20.8413 4.47607 22.3337 5.96846 22.3337 7.80941Z" fill="#FF0013" stroke="white"/>
<path d="M22.167 1.88465C22.4234 1.78209 22.5481 1.49111 22.4456 1.23471C22.343 0.978323 22.052 0.853615 21.7956 0.956172L22.167 1.88465ZM19.9227 4.57698C19.9921 3.95266 20.0891 3.49783 20.3684 3.09731C20.6465 2.69831 21.1514 2.29089 22.167 1.88465L21.7956 0.956172C20.6816 1.40179 19.9797 1.90615 19.548 2.52542C19.1174 3.14318 19.0014 3.8131 18.9288 4.46655L19.9227 4.57698Z" fill="#333333"/>
<path d="M17.6053 9.28729C17.7157 9.37014 17.8724 9.34775 17.9553 9.23729C18.0381 9.12684 18.0157 8.97014 17.9053 8.88729L17.6053 9.28729ZM17.1526 6.35496C16.906 6.60149 16.634 7.0429 16.6215 7.58009C16.6087 8.13396 16.8725 8.7377 17.6053 9.28729L17.9053 8.88729C17.2751 8.41466 17.113 7.95359 17.1214 7.59172C17.1302 7.21317 17.3267 6.88791 17.5061 6.70851L17.1526 6.35496Z" fill="white"/>
</svg>
