<svg width="25" height="25" viewBox="0 0 25 25" fill="none" xmlns="http://www.w3.org/2000/svg">
<path fill-rule="evenodd" clip-rule="evenodd" d="M8.5 7.08691C8.5 6.02605 8.92143 5.00863 9.67157 4.25849C10.4217 3.50834 11.4391 3.08691 12.5 3.08691C13.5609 3.08691 14.5783 3.50834 15.3284 4.25849C16.0786 5.00863 16.5 6.02605 16.5 7.08691C16.5 8.14778 16.0786 9.1652 15.3284 9.91534C14.5783 10.6655 13.5609 11.0869 12.5 11.0869C11.4391 11.0869 10.4217 10.6655 9.67157 9.91534C8.92143 9.1652 8.5 8.14778 8.5 7.08691ZM8.5 13.0869C7.17392 13.0869 5.90215 13.6137 4.96447 14.5514C4.02678 15.4891 3.5 16.7608 3.5 18.0869C3.5 18.8826 3.81607 19.6456 4.37868 20.2082C4.94129 20.7708 5.70435 21.0869 6.5 21.0869H18.5C19.2956 21.0869 20.0587 20.7708 20.6213 20.2082C21.1839 19.6456 21.5 18.8826 21.5 18.0869C21.5 16.7608 20.9732 15.4891 20.0355 14.5514C19.0979 13.6137 17.8261 13.0869 16.5 13.0869H8.5Z" fill="#A8A5A0"/>
</svg>
