<svg width="25" height="26" viewBox="0 0 25 26" fill="none" xmlns="http://www.w3.org/2000/svg">
<path fill-rule="evenodd" clip-rule="evenodd" d="M8.5 14.0869C7.17392 14.0869 5.90215 14.6137 4.96447 15.5514C4.02678 16.4891 3.5 17.7608 3.5 19.0869C3.5 19.8826 3.81607 20.6456 4.37868 21.2082C4.94129 21.7708 5.70435 22.0869 6.5 22.0869H18.5C19.2956 22.0869 20.0587 21.7708 20.6213 21.2082C21.1839 20.6456 21.5 19.8826 21.5 19.0869C21.5 17.7608 20.9732 16.4891 20.0355 15.5514C19.0979 14.6137 17.8261 14.0869 16.5 14.0869H8.5Z" fill="#333333"/>
<path d="M16.1667 6.97591C16.1667 9.093 14.4504 10.8092 12.3333 10.8092C10.2162 10.8092 8.5 9.093 8.5 6.97591C8.5 4.85882 10.2162 3.14258 12.3333 3.14258C14.4504 3.14258 16.1667 4.85882 16.1667 6.97591Z" fill="#FF0013" stroke="white"/>
<path d="M10.7753 8.62014C10.8857 8.70298 11.0424 8.6806 11.1253 8.57014C11.2081 8.45968 11.1857 8.30298 11.0753 8.22014L10.7753 8.62014ZM10.267 5.35447C9.99272 5.62878 9.69016 6.12019 9.67628 6.7171C9.66201 7.33069 9.9536 8.00388 10.7753 8.62014L11.0753 8.22014C10.3562 7.68084 10.1663 7.15032 10.1761 6.72873C10.1863 6.29046 10.4134 5.9152 10.6206 5.70803L10.267 5.35447Z" fill="white"/>
<path d="M17.5 1.21766C17.7564 1.1151 17.8811 0.824114 17.7786 0.567723C17.676 0.311331 17.385 0.186623 17.1287 0.28918L17.5 1.21766ZM15.2557 3.90999C15.3251 3.28567 15.4221 2.83083 15.7014 2.43032C15.9795 2.03132 16.4844 1.62389 17.5 1.21766L17.1287 0.28918C16.0146 0.734793 15.3128 1.23916 14.881 1.85843C14.4504 2.47619 14.3345 3.14611 14.2618 3.79956L15.2557 3.90999Z" fill="#333333"/>
</svg>
